# xmcd
#
# Track frame offsets: 
#        150
#        8071
#        27801
#        42907
#        54439
#        75837
#        94293
#        109746
#        125120
#        138349
#        156700
#        175770
#        193549
#        210825
#        226563
#
# Disc length: 3333 seconds
#
# Revision: 10
# Processed by: cddbd v1.5.2PL0 Copyright (c) Steve Scherf et al.
# Submitted via: ExactAudioCopyFreeDBPlugin 1.0
#
DISCID=b50d030f
DTITLE=Creutzfeld and Jakob - Gottes Werk und Creutzfelds Beitrag
DYEAR=2000
DGENRE=Hip Hop
TTITLE0=Intro
TTITLE1=Anfangsstadium
TTITLE2=Rhymes, Weed, Cash, Beatz
TTITLE3=Rapskit
TTITLE4=Bunkerwelt in Witten feat. Onanon and Dike
TTITLE5=Zugzwang feat. Lak Spencer and Terence Chill
TTITLE6=Laﬂ die Puppen tanzen
TTITLE7=Flipstar
TTITLE8=Flucht in Ketten
TTITLE9=Wer meint's ernst
TTITLE10=Software feat. Lenny and Meron
TTITLE11=Auge des Sturms
TTITLE12=Edla, Lak und Klartext
TTITLE13=Fehdehandschuh feat. Kool Savas
TTITLE14=3. Halbzeit feat. RAG
EXTD=YEAR: 2000  ID3G:   7
EXTT0=
EXTT1=
EXTT2=
EXTT3=
EXTT4=
EXTT5=
EXTT6=
EXTT7=
EXTT8=
EXTT9=
EXTT10=
EXTT11=
EXTT12=
EXTT13=
EXTT14=
PLAYORDER=
